<?xml version="1.0" encoding="UTF-8" standalone="no"?>
<!-- Created with Sodipodi ("http://www.sodipodi.com/") -->

<svg
   xmlns:dc="http://purl.org/dc/elements/1.1/"
   xmlns:cc="http://creativecommons.org/ns#"
   xmlns:rdf="http://www.w3.org/1999/02/22-rdf-syntax-ns#"
   xmlns:svg="http://www.w3.org/2000/svg"
   xmlns="http://www.w3.org/2000/svg"
   xmlns:xlink="http://www.w3.org/1999/xlink"
   xmlns:sodipodi="http://sodipodi.sourceforge.net/DTD/sodipodi-0.dtd"
   xmlns:inkscape="http://www.inkscape.org/namespaces/inkscape"
   xml:space="preserve"
   width="342.39999pt"
   height="342.40002pt"
   style="fill-rule:evenodd;image-rendering:optimizeQuality;shape-rendering:geometricPrecision;text-rendering:geometricPrecision"
   viewBox="0 0 14297.794 21294.368"
   id="svg602"
   sodipodi:version="0.34"
   sodipodi:docname="AriesSymbol.svg"
   version="1.1"
   inkscape:version="0.91 r13725"><metadata
     id="metadata8"><rdf:RDF><cc:Work
         rdf:about=""><dc:format>image/svg+xml</dc:format><dc:type
           rdf:resource="http://purl.org/dc/dcmitype/StillImage" /><dc:title></dc:title></cc:Work></rdf:RDF></metadata><sodipodi:namedview
     id="base"
     showgrid="true"
     inkscape:zoom="1.0042553"
     inkscape:cx="-10.652954"
     inkscape:cy="184.56357"
     inkscape:window-width="1600"
     inkscape:window-height="837"
     inkscape:window-x="-8"
     inkscape:window-y="-8"
     inkscape:window-maximized="1"
     inkscape:current-layer="svg602"
     fit-margin-top="0"
     fit-margin-left="0"
     fit-margin-right="0"
     fit-margin-bottom="0" /><defs
     id="defs603"><linearGradient
       id="linearGradient4238"><stop
         style="stop-color:#aa0000;stop-opacity:1;"
         offset="0"
         id="stop4240" /><stop
         style="stop-color:#790000;stop-opacity:1;"
         offset="1"
         id="stop4242" /></linearGradient><style
       type="text/css"
       id="style604"><![CDATA[
    .fil0 {fill:#000000}
   ]]></style><radialGradient
       inkscape:collect="always"
       xlink:href="#linearGradient4238"
       id="radialGradient4244"
       cx="5209.2461"
       cy="4065.9839"
       fx="5209.2461"
       fy="4065.9839"
       r="10448.17"
       gradientUnits="userSpaceOnUse"
       gradientTransform="matrix(1.004778,-0.03182544,0.0333086,1.0516029,1581.1594,6983.0511)" /></defs><g
     id="g4248"><path
       id="path4224"
       d="M 7148.8965,199.01367 A 10448.17,10448.17 0 0 0 -3299.2734,10647.184 10448.17,10448.17 0 0 0 7148.8965,21095.354 10448.17,10448.17 0 0 0 17597.066,10647.184 10448.17,10448.17 0 0 0 7148.8965,199.01367 Z"
       style="opacity:1;fill:#860000;fill-opacity:1;stroke:none;stroke-width:200;stroke-miterlimit:4;stroke-dasharray:none;stroke-opacity:1"
       transform="translate(-2.7883746e-5,-7.1289037e-6)" /><path
       id="path4140"
       d="M 17597.067,10647.184 A 10448.17,10448.17 0 0 1 7148.897,21095.354 10448.17,10448.17 0 0 1 -3299.2729,10647.184 10448.17,10448.17 0 0 1 7148.897,199.01367 10448.17,10448.17 0 0 1 17597.067,10647.184 Z"
       style="opacity:1;fill:url(#radialGradient4244);fill-opacity:1;stroke:#5b0000;stroke-width:398.0255127;stroke-miterlimit:4;stroke-dasharray:none;stroke-opacity:1" /><g
       style="fill:#ff9697;fill-opacity:1"
       transform="matrix(4.487579,0,0,4.505588,-5989.4333,-7687.7754)"
       id="Layer 1"><path
         style="fill:#ff9697;fill-opacity:1"
         inkscape:connector-curvature="0"
         id="path606"
         d="m 2796,5449 0,-134 c 0,-257 -26,-543 -77,-857 -52,-315 -115,-572 -189,-771 -162,-432 -336,-648 -523,-648 -83,0 -151,36 -204,109 -52,73 -78,167 -78,284 0,154 49,313 149,477 l -203,0 c -98,-177 -147,-343 -147,-497 0,-160 46,-292 138,-398 92,-106 208,-160 347,-160 225,0 415,151 573,454 157,301 256,706 297,1215 l 34,0 c 34,-498 132,-901 292,-1208 160,-307 354,-461 579,-461 139,0 254,53 346,158 92,104 138,236 138,396 0,155 -49,322 -146,501 l -204,0 c 99,-177 149,-339 149,-488 0,-119 -26,-215 -77,-289 -52,-73 -120,-110 -205,-110 -181,0 -350,202 -506,604 -80,205 -146,471 -201,798 -54,326 -81,626 -81,899 l 0,126 -201,0 z"
         class="fil0" /></g></g></svg>